<svg xmlns="http://www.w3.org/2000/svg" width="22" height="22" viewBox="0 0 22 22">
  <g id="_2" data-name="2" transform="translate(37 -4417)">
    <rect id="Rectangle_2" data-name="Rectangle 2" width="22" height="22" rx="6" transform="translate(-37 4417)" fill="#1f2949"/>
    <g id="Group_2" data-name="Group 2" transform="translate(-205 4261)">
      <path id="icons8-verified_account" d="M11.57,4A4.2,4.2,0,0,0,7.389,8.209a4.15,4.15,0,0,0,1.948,3.464A6.588,6.588,0,0,0,5,17.828H6.195a5.406,5.406,0,0,1,5.376-5.411,5.279,5.279,0,0,1,1.415.2,4.766,4.766,0,1,0,3.363-1.4,4.706,4.706,0,0,0-2.21.552c-.106-.035-.214-.068-.318-.107a4.149,4.149,0,0,0,1.931-3.451A4.2,4.2,0,0,0,11.57,4Zm0,1.2A3.006,3.006,0,1,1,8.584,8.209,2.987,2.987,0,0,1,11.57,5.2Zm4.778,7.215a3.607,3.607,0,1,1-3.584,3.607A3.606,3.606,0,0,1,16.349,12.417Z" transform="translate(166 155)" fill="#bfbfbf"/>
      <path id="Path_290" data-name="Path 290" d="M2032.6.663h1.412l-.233.4h-.459l.229.4-.243.42Zm3.08-.011-1.3,2.248-.637-1.1-.241.417h0l-.673,1.163.205.354h0l.673-1.163.673,1.163,1.663-2.873.224.129V.058l-.809.465.224.129Zm-1.5.414.205.354.438-.757h.5l-.938,1.621-.455-.786Z" transform="translate(-1851.998 169.447)" fill="#bfbfbf" fill-rule="evenodd"/>
    </g>
  </g>
</svg>
